{
	"asset":{
		"generator":"Khronos glTF Blender I/O v3.5.30",
		"version":"2.0"
	},
	"scene":0,
	"scenes":[
		{
			"name":"Scene",
			"nodes":[
				0
			]
		}
	],
	"nodes":[
		{
			"mesh":0,
			"name":"Cube",
			"rotation":[
				-0.7071068286895752,
				0,
				0,
				0.7071068286895752
			],
			"scale":[
				1000,
				1000,
				1000
			]
		}
	],
	"animations":[
		{
			"channels":[
				{
					"sampler":0,
					"target":{
						"node":0,
						"path":"translation"
					}
				},
				{
					"sampler":1,
					"target":{
						"node":0,
						"path":"rotation"
					}
				},
				{
					"sampler":2,
					"target":{
						"node":0,
						"path":"scale"
					}
				}
			],
			"name":"CubeAction",
			"samplers":[
				{
					"input":4,
					"interpolation":"LINEAR",
					"output":5
				},
				{
					"input":4,
					"interpolation":"LINEAR",
					"output":6
				},
				{
					"input":7,
					"interpolation":"STEP",
					"output":8
				}
			]
		}
	],
	"materials":[
		{
			"doubleSided":true,
			"name":"Material.001",
			"pbrMetallicRoughness":{
				"baseColorTexture":{
					"index":0
				},
				"metallicFactor":0,
				"roughnessFactor":0.4000000059604645
			}
		}
	],
	"meshes":[
		{
			"name":"Cube.001",
			"primitives":[
				{
					"attributes":{
						"POSITION":0,
						"TEXCOORD_0":1,
						"NORMAL":2
					},
					"indices":3,
					"material":0
				}
			]
		}
	],
	"textures":[
		{
			"sampler":0,
			"source":0
		}
	],
	"images":[
		{
			"bufferView":4,
			"mimeType":"image/png",
			"name":"arrow-uv"
		}
	],
	"accessors":[
		{
			"bufferView":0,
			"componentType":5126,
			"count":3452,
			"max":[
				0.004583335947245359,
				0.04834330826997757,
				0.004583335481584072
			],
			"min":[
				-0.004583333618938923,
				0.0001236560201505199,
				-0.004583335015922785
			],
			"type":"VEC3"
		},
		{
			"bufferView":1,
			"componentType":5126,
			"count":3452,
			"type":"VEC2"
		},
		{
			"bufferView":2,
			"componentType":5126,
			"count":3452,
			"type":"VEC3"
		},
		{
			"bufferView":3,
			"componentType":5123,
			"count":17664,
			"type":"SCALAR"
		},
		{
			"bufferView":5,
			"componentType":5126,
			"count":21,
			"max":[
				0.8333333333333334
			],
			"min":[
				0
			],
			"type":"SCALAR"
		},
		{
			"bufferView":6,
			"componentType":5126,
			"count":21,
			"type":"VEC3"
		},
		{
			"bufferView":7,
			"componentType":5126,
			"count":21,
			"type":"VEC4"
		},
		{
			"bufferView":8,
			"componentType":5126,
			"count":1,
			"max":[
				0.8333333333333334
			],
			"min":[
				0.8333333333333334
			],
			"type":"SCALAR"
		},
		{
			"bufferView":9,
			"componentType":5126,
			"count":1,
			"type":"VEC3"
		}
	],
	"bufferViews":[
		{
			"buffer":0,
			"byteLength":41424,
			"byteOffset":0,
			"target":34962
		},
		{
			"buffer":0,
			"byteLength":27616,
			"byteOffset":41424,
			"target":34962
		},
		{
			"buffer":0,
			"byteLength":41424,
			"byteOffset":69040,
			"target":34962
		},
		{
			"buffer":0,
			"byteLength":35328,
			"byteOffset":110464,
			"target":34963
		},
		{
			"buffer":0,
			"byteLength":92962,
			"byteOffset":145792
		},
		{
			"buffer":0,
			"byteLength":84,
			"byteOffset":238756
		},
		{
			"buffer":0,
			"byteLength":252,
			"byteOffset":238840
		},
		{
			"buffer":0,
			"byteLength":336,
			"byteOffset":239092
		},
		{
			"buffer":0,
			"byteLength":4,
			"byteOffset":239428
		},
		{
			"buffer":0,
			"byteLength":12,
			"byteOffset":239432
		}
	],
	"samplers":[
		{
			"magFilter":9729,
			"minFilter":9987
		}
	],
	"buffers":[
		{
			"byteLength":239444,
			"uri":"data:application/octet-stream;base64,"
		}
	]
}
